<svg xmlns="http://www.w3.org/2000/svg" viewBox="0 0 630.93 650.14"><defs><style>.cls-1{font-size:34.39px;letter-spacing:0.09em;}.cls-1,.cls-11,.cls-5{fill:#fff;}.cls-1,.cls-5{font-family:Optotypo-Regular, Optotypo;}.cls-2{letter-spacing:0.1em;}.cls-3{letter-spacing:0.12em;}.cls-4{letter-spacing:0.1em;}.cls-5{font-size:46.96px;}.cls-6{letter-spacing:0.02em;}.cls-7{letter-spacing:0.05em;}.cls-8{letter-spacing:0.01em;}.cls-9{letter-spacing:0.05em;}.cls-10{letter-spacing:0.02em;}.cls-12{fill:#fdb614;}</style></defs><title>Ativo 5</title><g id="Camada_2" data-name="Camada 2"><g id="Camada_1-2" data-name="Camada 1"><text class="cls-1" transform="translate(107.7 614.48)">D<tspan class="cls-2" x="33.8" y="0">ESI</tspan><tspan class="cls-3" x="111.15" y="0">G</tspan><tspan class="cls-4" x="143.71" y="0">N</tspan></text><text class="cls-5" transform="translate(8.41 572.35)"><tspan class="cls-6">C</tspan><tspan class="cls-7" x="39.3" y="0">R</tspan><tspan x="81.7" y="0">EA</tspan><tspan class="cls-8" x="156.92" y="0">T</tspan><tspan class="cls-9" x="192.84" y="0">E</tspan><tspan class="cls-10" x="233.74" y="0">LL</tspan><tspan class="cls-7" x="293.93" y="0">E</tspan><tspan x="334.83" y="0">R</tspan></text><path class="cls-11" d="M459.05,171.51a216.83,216.83,0,0,1,73.77,163.17c0,120-97.31,217.35-217.36,217.35S98.11,454.72,98.11,334.68a216.27,216.27,0,0,1,33.1-115.32,218.85,218.85,0,0,1,40.67-47.85V53.71a315.2,315.2,0,0,0-40.67,24.88C51.74,135.87,0,229.23,0,334.68,0,508.9,141.24,650.14,315.46,650.14S630.93,508.9,630.93,334.68a332.46,332.46,0,0,0-14.12-93.62C581,127.83,489.72,69.58,459,51.76ZM594,334.68c0,153.82-124.69,278.51-278.52,278.51S37,488.5,37,334.68a277.78,277.78,0,0,1,94.26-208.82v39.76A249.13,249.13,0,0,0,65.37,334.68c0,138.12,112,250.09,250.09,250.09s250.1-112,250.1-250.09a249.2,249.2,0,0,0-68.14-171.56V123.86A277.84,277.84,0,0,1,594,334.68Z"/><g id="logo"><path id="rocket" class="cls-12" d="M469.6,338.78a76,76,0,0,0-22.23-53.68h.2c0-228.87-132-285.1-132-285.1s-132,56.23-132,285.07a76.07,76.07,0,0,0-22.25,53.71s-3.25,40.09,15.75,81.86C211,389.57,260.47,370,315.57,370S420,389.51,453.92,420.5C472.84,378.78,469.6,338.78,469.6,338.78Zm-154.14-146a38.37,38.37,0,1,1,38.37-38.37A38.36,38.36,0,0,1,315.46,192.73Z"/></g><rect class="cls-12" x="354.77" y="400.82" width="21.24" height="87.6"/><rect class="cls-12" x="254.93" y="400.82" width="21.24" height="87.6"/><rect class="cls-12" x="305.36" y="411.44" width="21.24" height="98.21"/></g></g></svg>