<?xml version="1.0" encoding="utf-8"?>
<!-- Generator: Adobe Illustrator 24.0.2, SVG Export Plug-In . SVG Version: 6.00 Build 0)  -->
<svg version="1.1" id="Camada_1" xmlns="http://www.w3.org/2000/svg" xmlns:xlink="http://www.w3.org/1999/xlink" x="0px" y="0px"
	 viewBox="0 0 111.2 30.6" style="enable-background:new 0 0 111.2 30.6;" xml:space="preserve">
<style type="text/css">
	.st0{fill:#FFFFFF;}
	.st1{fill:#FCB614;}
</style>
<g>
	<g>
		<path d="M7.4,15.6"/>
		<path id="XMLID_1665_" class="st0" d="M22.3,8.7c1.9,1.6,3,4,3,6.7c0,4.9-4,8.9-8.9,8.9s-8.9-4-8.9-8.9c0-1.7,0.5-3.4,1.4-4.7
			c0.5-0.7,1-1.4,1.7-2V7V5.6V3.9c-0.6,0.3-1.1,0.6-1.7,1c-3.3,2.4-5.4,6.2-5.4,10.5c0,7.2,5.8,13,13,13s13-5.8,13-13
			c0-1.8-0.4-3.3-0.6-3.8c-1.5-4.6-5.2-7-6.5-7.8C22.3,5.4,22.3,7.1,22.3,8.7z M27.8,15.4c0,6.3-5.1,11.4-11.4,11.4
			S4.9,21.7,4.9,15.4c0-3.4,1.5-6.5,3.9-8.6v1.6c-1.7,1.8-2.7,4.3-2.7,6.9c0,5.7,4.6,10.3,10.3,10.3s10.3-4.6,10.3-10.3
			c0-2.7-1.1-5.2-2.8-7V6.7C26.3,8.8,27.8,11.9,27.8,15.4z"/>
		<g>
			<g id="logo">
				<path id="rocket" class="st1" d="M22.7,15.6c0-0.9-0.3-1.6-0.9-2.2h0c0-9.4-5.4-11.7-5.4-11.7S11,4,11,13.4
					c-0.6,0.6-0.9,1.3-0.9,2.2c0,0-0.1,1.6,0.6,3.4c1.4-1.3,3.4-2.1,5.7-2.1c2.3,0,4.3,0.8,5.7,2.1C22.8,17.2,22.7,15.6,22.7,15.6z
					 M16.4,9.6c-0.9,0-1.6-0.7-1.6-1.6c0-0.9,0.7-1.6,1.6-1.6c0.9,0,1.6,0.7,1.6,1.6C17.9,8.9,17.2,9.6,16.4,9.6z"/>
			</g>
			<g>
				<rect x="18" y="18.1" class="st1" width="0.9" height="3.6"/>
				<rect x="13.9" y="18.1" class="st1" width="0.9" height="3.6"/>
				<rect x="16" y="18.5" class="st1" width="0.9" height="4"/>
			</g>
		</g>
	</g>
	<g>
		<path class="st0" d="M51.5,12.9c0,0.2-0.1,0.4-0.4,0.4H48c-0.1,0-0.3,0-0.3-0.2c0-0.7-0.9-3-4.8-3c-2.7,0-4.6,2.3-4.6,5.1
			c0,2.6,1.9,5,4.6,5c4.3,0,4.8-2.9,4.8-3.4c0-0.2,0.2-0.3,0.4-0.3h3.1c0.2,0,0.4,0.2,0.4,0.4c-0.1,1.6-1,6.9-8.6,6.9
			c-5.2,0-8.6-3.7-8.6-8.7c0-4.5,3-8.8,8.6-8.8C48.1,6.3,51.5,9.8,51.5,12.9z"/>
		<path class="st0" d="M70.5,9.5c0,0.2-0.1,0.4-0.4,0.4h-6v13.3c0,0.2-0.1,0.4-0.4,0.4h-3.6c-0.2,0-0.4-0.1-0.4-0.4V9.9h-5.9
			c-0.2,0-0.4-0.1-0.4-0.4V6.8c0-0.2,0.1-0.4,0.4-0.4h16.2c0.2,0,0.4,0.1,0.4,0.4V9.5z"/>
		<path class="st0" d="M85.5,20.1c0.2,0,0.4,0.1,0.4,0.4v2.7c0,0.2-0.1,0.4-0.4,0.4H73.8c-0.2,0-0.4-0.1-0.4-0.4V6.8
			c0-0.2,0.1-0.4,0.4-0.4h3.5c0.2,0,0.4,0.1,0.4,0.4v13.2H85.5z"/>
		<path class="st0" d="M100,6.5c5.8,0,7.2,3.2,7.2,5.8c0,2.1-0.8,4.1-3.5,5.2l2.9,5.3c0.2,0.3,0,0.7-0.4,0.7h-3.8
			c-0.1,0-0.2-0.1-0.3-0.2l-2.7-5c-0.4,0-0.8,0-1.2,0h-5.1v4.8c0,0.2-0.1,0.4-0.4,0.4h-3.3c-0.2,0-0.4-0.1-0.4-0.4V6.8
			c0-0.2,0.1-0.4,0.4-0.4H100z M98.7,15c3.7,0,4.2-1.1,4.2-2.5c0-0.8-0.3-2.4-3.6-2.4h-6.2V15H98.7z"/>
	</g>
</g>
</svg>
