<svg xmlns="http://www.w3.org/2000/svg" viewBox="0 0 103.77 26.7"><defs><style>.cls-1{fill:#fff;}.cls-2{fill:#fcb614;}</style></defs><title>logo</title><g id="Camada_2" data-name="Camada 2"><g id="Camada_1-2" data-name="Camada 1"><path class="cls-1" d="M18.85,7A8.93,8.93,0,1,1,5.39,9,8.77,8.77,0,0,1,7.06,7V2.21a11.83,11.83,0,0,0-1.67,1A13,13,0,1,0,25.91,13.74a13.64,13.64,0,0,0-.58-3.84,14.22,14.22,0,0,0-6.48-7.77Zm5.54,6.7a11.44,11.44,0,1,1-19-8.57V6.8a10.27,10.27,0,1,0,15-.1V5.09A11.38,11.38,0,0,1,24.39,13.74Z"/><g id="logo"><path id="rocket" class="cls-2" d="M19.28,13.91a3.11,3.11,0,0,0-.91-2.2h0C18.38,2.31,13,0,13,0S7.54,2.31,7.54,11.71a3.07,3.07,0,0,0-.92,2.2,7.55,7.55,0,0,0,.65,3.36A8.47,8.47,0,0,1,13,15.19a8.41,8.41,0,0,1,5.68,2.08A7.47,7.47,0,0,0,19.28,13.91ZM13,7.91a1.58,1.58,0,0,1,0-3.15,1.58,1.58,0,1,1,0,3.15Z"/></g><rect class="cls-2" x="14.57" y="16.46" width="0.87" height="3.6"/><rect class="cls-2" x="10.47" y="16.46" width="0.87" height="3.6"/><rect class="cls-2" x="12.54" y="16.89" width="0.87" height="4.03"/><path class="cls-1" d="M48.13,11.23a.39.39,0,0,1-.39.44H44.62c-.14,0-.31-.05-.31-.2,0-.68-.88-3-4.76-3-2.7,0-4.61,2.34-4.61,5.12a4.81,4.81,0,0,0,4.61,5c4.29,0,4.83-2.9,4.83-3.39a.36.36,0,0,1,.37-.34h3.09a.36.36,0,0,1,.37.39c-.1,1.56-1,6.92-8.63,6.92-5.22,0-8.61-3.65-8.61-8.73,0-4.51,3.05-8.8,8.58-8.8C44.72,4.62,48.13,8.16,48.13,11.23Z"/><path class="cls-1" d="M67.13,7.89a.35.35,0,0,1-.37.37h-6V21.52a.34.34,0,0,1-.36.37H56.81a.34.34,0,0,1-.36-.37V8.26H50.52a.34.34,0,0,1-.36-.37V5.18a.34.34,0,0,1,.36-.36H66.76a.34.34,0,0,1,.37.36Z"/><path class="cls-1" d="M82.12,18.42a.35.35,0,0,1,.37.37v2.73a.35.35,0,0,1-.37.37H70.4a.35.35,0,0,1-.37-.37V5.18a.34.34,0,0,1,.37-.36h3.46a.34.34,0,0,1,.36.36V18.42Z"/><path class="cls-1" d="M96.56,4.82c5.78,0,7.21,3.17,7.21,5.82a5.19,5.19,0,0,1-3.46,5.25l2.86,5.34a.44.44,0,0,1-.42.66H98.92a.37.37,0,0,1-.29-.18l-2.66-5c-.39,0-.8,0-1.24,0H89.66v4.75a.35.35,0,0,1-.37.37H86a.34.34,0,0,1-.36-.37V5.18A.34.34,0,0,1,86,4.82Zm-1.27,8.51c3.66,0,4.17-1.15,4.17-2.51,0-.83-.29-2.42-3.63-2.42H89.66v4.93Z"/></g></g></svg>